<svg xmlns="http://www.w3.org/2000/svg" viewBox="0 0 24 24" id="clouds">
  <g>
    <path fill="#9191ff" d="M20.1245,8.9673A3.9662,3.9662,0,0,0,20.25,8a4.2447,4.2447,0,0,0-8.3467-1.0967A4.2083,4.2083,0,0,0,9.1855,9.15a.25.25,0,0,0,.1358.3433,3.7441,3.7441,0,0,1,2.3252,2.6718.25.25,0,0,0,.188.188,3.7689,3.7689,0,0,1,2.5683,2.0908.25.25,0,0,0,.3409.1182,2.735,2.735,0,0,1,3.2978.6016.2493.2493,0,0,0,.1885.0859H19a3.24,3.24,0,0,0,1.1245-6.2827Z"></path>
    <path fill="#99f" d="M16,13.75a3.1514,3.1514,0,0,0-1.2524.2637,4.2725,4.2725,0,0,0-2.649-2.1118A4.246,4.246,0,0,0,3.75,13a3.9076,3.9076,0,0,0,.1274.9639A3.2418,3.2418,0,0,0,5,20.25H16a3.25,3.25,0,0,0,0-6.5Z"></path>
    <path fill="#8080ff" d="M8 15.25A.25.25 0 0 1 7.75 15a.75.75 0 0 0-1.5 0 .25.25 0 0 1-.5 0 1.25 1.25 0 0 1 2.5 0A.25.25 0 0 1 8 15.25zM18 10.25a.25.25 0 0 1-.25-.25.75.75 0 0 0-1.5 0 .25.25 0 0 1-.5 0 1.25 1.25 0 0 1 2.5 0A.25.25 0 0 1 18 10.25zM14 18.25a.25.25 0 0 1-.25-.25.75.75 0 0 0-1.5 0 .25.25 0 0 1-.5 0 1.25 1.25 0 0 1 2.5 0A.25.25 0 0 1 14 18.25z"></path>
  </g>
</svg>
